PathFileType  4	(X/Y/Z) C:\Users\antoi\Documents\MyRepositories\mobilecap\ResultsAnalysis
DataRate	CameraRate	NumFrames	NumMarkers	Units	OrigDataRate	OrigDataStartFrame	OrigNumFrames
100.0	100.0	4	51	mm	100.0	37	295
Frame#	Time	r_knee			r_shank_antsup			r_ankle			r_calc			r_5meta			r_toe			L_knee			L_shank_antsup			L_ankle			L_calc			L_5meta			L_toe			r_sh2			r_sh3			r_sh4			L_sh2			L_sh3			r_thigh1			r_thigh2			r_thigh3			r_thigh4			r_thigh5			L_thigh1			L_thigh2			L_thigh3			L_thigh4			r.ASIS			r.PSIS			L.ASIS			L.PSIS			C7			R_Shoulder			L_Shoulder			R_Sternum			L_Sternum			R_humerus			R_elbow_med			R_elbow_lat			R_forearm			R_wrist_radius			R_wrist_ulna			L_humerus			L_elbow_med			L_elbow_lat			L_forearm			L_wrist_radius			L_wrist_ulna			R_HJC			L_HJC			R_HJC_reg			L_HJC_reg			
		X1	Y1	Z1	X2	Y2	Z2	X3	Y3	Z3	X4	Y4	Z4	X5	Y5	Z5	X6	Y6	Z6	X7	Y7	Z7	X8	Y8	Z8	X9	Y9	Z9	X10	Y10	Z10	X11	Y11	Z11	X12	Y12	Z12	X13	Y13	Z13	X14	Y14	Z14	X15	Y15	Z15	X16	Y16	Z16	X17	Y17	Z17	X18	Y18	Z18	X19	Y19	Z19	X20	Y20	Z20	X21	Y21	Z21	X22	Y22	Z22	X23	Y23	Z23	X24	Y24	Z24	X25	Y25	Z25	X26	Y26	Z26	X27	Y27	Z27	X28	Y28	Z28	X29	Y29	Z29	X30	Y30	Z30	X31	Y31	Z31	X32	Y32	Z32	X33	Y33	Z33	X34	Y34	Z34	X35	Y35	Z35	X36	Y36	Z36	X37	Y37	Z37	X38	Y38	Z38	X39	Y39	Z39	X40	Y40	Z40	X41	Y41	Z41	X42	Y42	Z42	X43	Y43	Z43	X44	Y44	Z44	X45	Y45	Z45	X46	Y46	Z46	X47	Y47	Z47	X48	Y48	Z48	X49	Y49	Z49	X50	Y50	Z50	X51	Y51	Z51	

37	0.36000000	-1109.25702	843.92386	-409.92144	-1095.40474	718.65183	-418.51290	-1247.35082	408.51865	-419.02771	-1314.94089	376.41984	-468.63917	-1119.68044	340.16489	-372.01357	-1078.88593	364.46160	-444.65240	-1141.62554	839.44352	-749.11248	-1108.51990	728.00324	-731.86363	-1248.49040	405.40574	-723.30101	-1310.63834	376.76301	-673.23481	-1108.77631	344.16021	-757.89455	-1074.40572	367.22954	-690.04360	-1118.98214	606.13151	-439.38621	-1156.26291	721.28493	-368.36160	-1171.71515	605.15449	-372.51074	-1188.16711	741.50466	-773.07259	-1187.46899	620.30977	-783.40609	-1035.24411	1081.01833	-436.07583	-1029.26319	970.82925	-446.77126	-1051.93501	939.55028	-391.13323	-1110.35571	1066.84409	-350.28545	-1103.31113	949.29918	-374.48830	-1083.50171	1093.97406	-766.80242	-1066.06518	957.96961	-752.45460	-1190.78253	1075.48439	-798.38627	-1172.93282	939.80503	-779.77665	-1063.83341	1320.58627	-437.67057	-1247.44943	1424.42213	-511.33567	-1078.22623	1315.00825	-700.20196	-1256.51135	1423.68073	-611.43247	-998.22580	1862.60191	-574.02984	-956.54356	1782.88183	-389.75389	-948.72962	1794.34875	-746.31335	-893.53118	1738.08184	-549.04044	-899.25485	1734.56851	-596.77953	-1021.47959	1633.98369	-306.15894	-1185.53777	1464.09683	-338.39618	-1161.32443	1485.71178	-257.29328	-1100.67266	1319.85364	-248.21291	-1092.44208	1197.86645	-239.79569	-1123.06667	1196.03973	-211.19176	-1022.67984	1648.45598	-844.15337	-1192.32490	1495.42342	-823.21213	-1155.69715	1502.70755	-895.88475	-1093.86625	1343.78428	-868.98305	-1081.81909	1226.79830	-889.44879	-1109.53511	1229.58492	-930.02820	-1170.85963	1274.88005	-465.19131	-1184.44786	1259.89764	-677.62230	-1159.78101	1272.00739	-466.09039	-1175.42976	1270.72785	-638.94802	
38	0.37000000	-1105.05660	843.20933	-409.98318	-1092.05917	717.90407	-418.44535	-1246.80661	409.13206	-418.86342	-1314.79019	376.67422	-468.41817	-1119.57938	340.17271	-372.00874	-1078.65425	364.33281	-444.68762	-1139.12538	838.80930	-749.65274	-1106.15107	727.25969	-731.96607	-1248.19724	405.54476	-723.18730	-1310.77185	376.45840	-672.32503	-1108.66918	344.22488	-757.91367	-1074.28427	367.16843	-689.98133	-1116.61541	605.48248	-439.55488	-1152.86610	721.21386	-368.45020	-1169.29343	605.03735	-372.63222	-1185.54251	741.15902	-773.81192	-1185.44445	619.94676	-784.03115	-1033.70880	1081.11356	-436.97789	-1026.44106	970.76464	-447.57835	-1048.30910	939.43862	-391.90017	-1107.97158	1066.08317	-350.72780	-1099.67693	948.67168	-374.88946	-1082.41687	1093.66398	-767.14002	-1064.12116	957.76727	-752.89375	-1189.41214	1074.53542	-798.03712	-1170.87532	938.90425	-780.29556	-1063.47336	1318.60834	-438.18462	-1246.07643	1424.17913	-511.69761	-1077.58844	1313.48526	-700.85129	-1255.03180	1423.86042	-611.92164	-991.83112	1859.44576	-574.21829	-950.45218	1779.33908	-390.25213	-942.48498	1791.06969	-746.47677	-888.55883	1733.41236	-550.38728	-893.94366	1730.55963	-597.07701	-1017.21676	1631.29124	-306.52569	-1183.32397	1463.41275	-338.62412	-1158.84407	1484.72083	-257.52038	-1100.03707	1318.17862	-248.78858	-1092.80935	1196.20875	-240.29233	-1123.40716	1194.60265	-211.67556	-1017.84294	1646.10068	-844.44043	-1189.21445	1495.13241	-824.00799	-1152.32697	1501.90223	-896.57374	-1092.04838	1342.51959	-869.52106	-1080.80987	1225.57125	-889.34937	-1108.70135	1228.25178	-930.15040	-1170.87414	1273.90341	-465.87416	-1184.43173	1259.42624	-678.34227	-1159.81306	1270.61765	-466.89849	-1175.26723	1270.06705	-639.85122	
39	0.38000000	-1100.32324	842.56241	-410.00043	-1088.44097	717.05526	-418.57671	-1246.14669	409.85823	-418.57433	-1314.60537	377.03708	-468.19020	-1119.47404	340.14205	-372.00555	-1078.37374	364.16129	-444.78503	-1136.16329	838.08964	-750.13739	-1103.48264	726.43024	-732.03068	-1247.78916	405.69055	-723.23379	-1310.57958	376.66957	-672.31755	-1108.53514	344.28564	-757.97692	-1074.15065	367.05630	-689.88551	-1114.08130	604.93923	-439.52466	-1149.06136	720.93996	-368.37439	-1166.60983	604.79680	-372.83860	-1182.67373	740.60717	-774.42353	-1183.26348	619.37899	-784.48084	-1031.98041	1081.11944	-438.06005	-1023.17554	970.79832	-448.21244	-1044.31103	939.38177	-392.60605	-1105.48087	1065.17023	-351.24853	-1095.77841	947.81238	-375.38381	-1081.07440	1093.34433	-767.64052	-1061.82148	957.54427	-753.50456	-1187.68547	1073.32609	-797.04511	-1168.32379	937.86285	-780.73957	-1063.08548	1316.41759	-438.73167	-1244.64624	1423.85848	-512.04962	-1077.48841	1311.75894	-701.06262	-1253.49030	1423.77175	-612.42792	-985.62286	1856.13185	-574.56704	-944.36990	1775.51173	-390.72806	-936.34465	1787.60745	-746.76654	-883.55463	1729.03010	-551.12237	-888.69595	1726.35895	-597.31695	-1012.95871	1628.29834	-306.87867	-1180.95127	1462.45367	-338.96570	-1156.30258	1483.46106	-257.83502	-1099.01924	1316.12189	-249.43618	-1092.99439	1194.31934	-240.80598	-1123.56792	1192.96057	-212.23989	-1012.98125	1643.43276	-844.74701	-1185.97781	1494.45777	-824.75099	-1148.83140	1500.80595	-897.24288	-1090.17067	1340.89741	-869.84922	-1079.80142	1223.92077	-889.55040	-1107.76837	1226.65242	-930.36501	-1170.99094	1272.85263	-466.35496	-1184.71063	1258.68895	-678.83382	-1160.04889	1269.41382	-467.57203	-1175.27013	1269.26433	-640.32991	
40	0.39000000	-1095.20654	841.76343	-410.11333	-1084.49887	716.06560	-418.90900	-1245.44950	410.69265	-418.28846	-1314.36545	377.66860	-468.01201	-1119.35495	340.13188	-372.01102	-1078.11399	364.03136	-444.82035	-1132.85467	837.31620	-750.73979	-1100.63646	725.51972	-732.26464	-1247.41502	405.77497	-723.30614	-1310.15765	377.42416	-673.20720	-1108.39541	344.28544	-758.04599	-1074.03702	366.93607	-689.79362	-1111.35403	604.30370	-439.53960	-1144.87161	720.40014	-368.32463	-1163.67233	604.47491	-372.98459	-1179.54700	739.91254	-775.02685	-1180.83710	618.66009	-784.73170	-1029.96622	1081.01377	-439.15679	-1019.61920	970.89029	-448.63645	-1040.09646	939.29151	-393.14719	-1102.84247	1064.06999	-352.03804	-1091.58786	946.82281	-375.81997	-1079.66850	1092.83890	-768.39803	-1059.26602	957.29772	-753.90553	-1185.84871	1071.97447	-796.81378	-1165.43986	936.71110	-781.27461	-1062.69877	1314.04850	-439.17818	-1243.19793	1423.37921	-512.23542	-1077.87989	1309.79817	-701.11399	-1251.94534	1423.31238	-612.78304	-979.52893	1852.65669	-574.99929	-938.37213	1771.36854	-391.10342	-930.29923	1783.95292	-747.15357	-878.37823	1724.71137	-551.31120	-883.61184	1721.90651	-597.63628	-1008.65148	1625.01336	-307.17679	-1178.50571	1461.24110	-339.13721	-1153.67587	1481.90293	-257.97338	-1097.50371	1313.89335	-249.95867	-1092.94987	1192.18384	-241.36274	-1123.50506	1191.13192	-212.84746	-1008.05106	1640.60683	-845.15807	-1182.56439	1493.40402	-825.39799	-1145.23292	1499.38370	-897.88838	-1088.17631	1338.85646	-870.02130	-1079.10073	1221.65131	-890.14059	-1106.67607	1224.77634	-930.73323	-1171.14071	1271.65551	-466.60445	-1185.28518	1257.65242	-679.06592	-1160.48968	1268.27447	-468.02069	-1175.50021	1268.15992	-640.55995	
